<svg xmlns="http://www.w3.org/2000/svg" xmlns:xlink="http://www.w3.org/1999/xlink" width="440" height="569" viewBox="0 0 440 569">
  <defs>
    <clipPath id="clip-Book">
      <rect width="440" height="569"/>
    </clipPath>
  </defs>
  <g id="Book" clip-path="url(#clip-Book)">
    <g id="Group_73" data-name="Group 73" transform="translate(1187 -923.772)">
      <g id="Plant" transform="translate(-938.148 923.648)">
        <g id="Path_53" data-name="Path 53" transform="translate(6.639 64.85)" fill="none">
          <path d="M0,0H49.034L38.986,35.3H10.558Z" stroke="none"/>
          <path d="M 4.028488159179688 2.999996185302734 L 12.79228591918945 32.30378723144531 L 36.72029876708984 32.30378723144531 L 45.06107330322266 2.999996185302734 L 4.028488159179688 2.999996185302734 M -3.814697265625e-06 -3.814697265625e-06 L 49.03412628173828 -3.814697265625e-06 L 38.98556518554688 35.30378723144531 L 10.55819320678711 35.30378723144531 L -3.814697265625e-06 -3.814697265625e-06 Z" stroke="none" fill="#292f36"/>
        </g>
        <path id="Path_55" data-name="Path 55" d="M-1241.7,772.16s-.869-35.1,14.514-42.766" transform="translate(1272.57 -705.296)" fill="none" stroke="#292f36" stroke-linecap="round" stroke-width="3"/>
        <path id="Path_56" data-name="Path 56" d="M-1226.133,780.129s-.191-43.065-15.574-50.736" transform="translate(1256.97 -713.594)" fill="none" stroke="#292f36" stroke-linecap="round" stroke-width="3"/>
        <g id="Path_57" data-name="Path 57" transform="translate(43.091 38.127) rotate(-135)" fill="none">
          <path d="M8.675,0A8.675,8.675,0,0,1,17.35,8.675c0,4.791-8.675,16.159-8.675,16.159S0,13.466,0,8.675A8.675,8.675,0,0,1,8.675,0Z" stroke="none"/>
          <path d="M 8.675142288208008 3 C 5.545862197875977 3 3.000001907348633 5.545860290527344 3.000001907348633 8.675140380859375 C 3.000001907348633 9.029190063476563 3.185761451721191 11.09047031402588 6.853081703186035 16.9161491394043 C 7.476107597351074 17.90585136413574 8.102921485900879 18.8492546081543 8.675308227539063 19.68519973754883 C 9.240076065063477 18.86024475097656 9.858168601989746 17.93007850646973 10.47479248046875 16.9517707824707 C 14.1634521484375 11.09951019287109 14.35030174255371 9.030500411987305 14.35030174255371 8.675159454345703 C 14.35030174255371 5.545869827270508 11.8044319152832 3 8.675142288208008 3 M 8.675142288208008 0 C 13.46630191802979 0 17.35030174255371 3.884000778198242 17.35030174255371 8.675159454345703 C 17.35030174255371 13.46631050109863 8.675161361694336 24.83432006835938 8.675161361694336 24.83432006835938 C 8.675161361694336 24.83432006835938 1.9073486328125e-06 13.46630001068115 1.9073486328125e-06 8.675140380859375 C 1.9073486328125e-06 3.883989334106445 3.883992195129395 0 8.675142288208008 0 Z" stroke="none" fill="#292f36"/>
        </g>
        <g id="Path_58" data-name="Path 58" transform="translate(0 12.268) rotate(-45)" fill="none">
          <path d="M8.675,24.834a8.675,8.675,0,0,0,8.675-8.675C17.35,11.368,8.675,0,8.675,0S0,11.368,0,16.159A8.675,8.675,0,0,0,8.675,24.834Z" stroke="none"/>
          <path d="M 8.675140380859375 21.83431816101074 L 8.675129890441895 21.83431816101074 C 11.80441951751709 21.83430862426758 14.35029029846191 19.28843879699707 14.35029983520508 16.15915870666504 C 14.35029983520508 15.80510807037354 14.16454029083252 13.7438383102417 10.49722957611084 7.918168067932129 C 9.874204635620117 6.928466320037842 9.247391700744629 5.98506498336792 8.675006866455078 5.149120330810547 C 8.110237121582031 5.97407341003418 7.492136001586914 6.90424919128418 6.875509738922119 7.882558345794678 C 3.18684983253479 13.73481845855713 3 15.80382823944092 3 16.1591682434082 C 3 19.2884578704834 5.545859813690186 21.83431816101074 8.675140380859375 21.83431816101074 M 8.675140380859375 24.83431816101074 C 3.883989810943604 24.83431816101074 -8.239746307481255e-08 20.9503173828125 -8.239746307481255e-08 16.1591682434082 C -8.239746307481255e-08 11.36801815032959 8.675159454345703 -1.873168912425172e-06 8.675159454345703 -1.873168912425172e-06 C 8.675159454345703 -1.873168912425172e-06 17.35029983520508 11.36800765991211 17.35029983520508 16.15915870666504 C 17.35029029846191 20.95030784606934 13.46628952026367 24.83430862426758 8.675140380859375 24.83431816101074 Z" stroke="none" fill="#292f36"/>
        </g>
        <rect id="Rectangle_30" data-name="Rectangle 30" width="51" height="6" rx="2" transform="translate(5.148 64.124)" fill="#292f36"/>
      </g>
      <g id="Group_45" data-name="Group 45" transform="translate(-1177.334 1214.552)">
        <g id="Rectangle_24" data-name="Rectangle 24" transform="translate(0.334 0.22)" fill="none" stroke="#292f36" stroke-width="2">
          <rect width="27" height="113" rx="4" stroke="none"/>
          <rect x="1" y="1" width="25" height="111" rx="3" fill="none"/>
        </g>
        <line id="Line_13" data-name="Line 13" y2="45.273" transform="translate(14.462 34.147)" fill="none" stroke="#292f36" stroke-linecap="round" stroke-width="2"/>
        <rect id="Rectangle_26" data-name="Rectangle 26" width="27" height="11" transform="translate(0.334 9.22)" fill="#292f36"/>
        <rect id="Rectangle_25" data-name="Rectangle 25" width="27" height="13" transform="translate(0.334 92.22)" fill="#292f36"/>
      </g>
      <g id="Group_44" data-name="Group 44" transform="translate(-1147.761 1214.552)">
        <g id="Rectangle_27" data-name="Rectangle 27" transform="translate(-0.239 0.22)" fill="none" stroke="#292f36" stroke-width="2">
          <rect width="28" height="113" rx="4" stroke="none"/>
          <rect x="1" y="1" width="26" height="111" rx="3" fill="none"/>
        </g>
        <line id="Line_14" data-name="Line 14" y2="45.273" transform="translate(14.462 34.147)" fill="none" stroke="#292f36" stroke-linecap="round" stroke-width="2"/>
        <rect id="Rectangle_29" data-name="Rectangle 29" width="28" height="11" transform="translate(-0.239 9.22)" fill="#292f36"/>
        <rect id="Rectangle_28" data-name="Rectangle 28" width="28" height="13" transform="translate(-0.239 92.22)" fill="#292f36"/>
      </g>
      <g id="Group_43" data-name="Group 43" transform="translate(-1118.189 1214.552)">
        <g id="Rectangle_27-2" data-name="Rectangle 27" transform="translate(0.189 0.22)" fill="none" stroke="#292f36" stroke-width="2">
          <rect width="28" height="113" rx="4" stroke="none"/>
          <rect x="1" y="1" width="26" height="111" rx="3" fill="none"/>
        </g>
        <line id="Line_14-2" data-name="Line 14" y2="45.273" transform="translate(14.462 34.147)" fill="none" stroke="#292f36" stroke-linecap="round" stroke-width="2"/>
        <rect id="Rectangle_29-2" data-name="Rectangle 29" width="28" height="11" transform="translate(0.189 9.22)" fill="#292f36"/>
        <rect id="Rectangle_28-2" data-name="Rectangle 28" width="28" height="13" transform="translate(0.189 92.22)" fill="#292f36"/>
      </g>
      <g id="Group_42" data-name="Group 42" transform="matrix(0.966, -0.259, 0.259, 0.966, -1089.796, 1220.061)">
        <g id="Rectangle_27-3" data-name="Rectangle 27" transform="translate(0 0)" fill="none" stroke="#292f36" stroke-width="2">
          <rect width="27.725" height="112.747" rx="4" stroke="none"/>
          <rect x="1" y="1" width="25.725" height="110.747" rx="3" fill="none"/>
        </g>
        <line id="Line_14-3" data-name="Line 14" y2="45.273" transform="translate(14.462 34.147)" fill="none" stroke="#292f36" stroke-linecap="round" stroke-width="2"/>
        <rect id="Rectangle_29-3" data-name="Rectangle 29" width="27.725" height="11.09" transform="translate(0 9.242)" fill="#292f36"/>
        <rect id="Rectangle_28-3" data-name="Rectangle 28" width="27.725" height="12.938" transform="translate(0 92.415)" fill="#292f36"/>
      </g>
      <line id="Line_16" data-name="Line 16" x2="369.661" transform="translate(-1187.5 1337.464)" fill="none" stroke="#292f36" stroke-linecap="round" stroke-width="9"/>
      <line id="Line_17" data-name="Line 17" x2="369.661" transform="translate(-1187.5 1184.055)" fill="none" stroke="#292f36" stroke-linecap="round" stroke-width="9"/>
      <line id="Line_19" data-name="Line 19" x2="369.661" transform="translate(-1187.5 1030.646)" fill="none" stroke="#292f36" stroke-linecap="round" stroke-width="9"/>
      <line id="Line_18" data-name="Line 18" x2="517.525" transform="translate(-1187.5 971.5) rotate(90)" fill="none" stroke="#292f36" stroke-linecap="round" stroke-width="9"/>
      <line id="Line_15" data-name="Line 15" x2="517.525" transform="translate(-817.839 971.5) rotate(90)" fill="none" stroke="#292f36" stroke-linecap="round" stroke-width="9"/>
      <g id="speaker" transform="translate(-926.838 1343.948)">
        <g id="Group_13" data-name="Group 13" transform="translate(0)">
          <g id="Group_12" data-name="Group 12">
            <path id="Path_25" data-name="Path 25" d="M171.791,0H98.757A13.124,13.124,0,0,0,85.648,13.109V136.044a13.124,13.124,0,0,0,13.109,13.109h73.034A13.124,13.124,0,0,0,184.9,136.044V13.109A13.124,13.124,0,0,0,171.791,0Zm0,140.413H98.757a4.375,4.375,0,0,1-4.37-4.37V13.109a4.375,4.375,0,0,1,4.37-4.37h73.034a4.375,4.375,0,0,1,4.37,4.37V136.044h0A4.375,4.375,0,0,1,171.791,140.413Z" transform="translate(-85.648 0)" fill="#292f36"/>
          </g>
        </g>
        <g id="Group_15" data-name="Group 15" transform="translate(30.83 16.763)">
          <g id="Group_14" data-name="Group 14">
            <path id="Path_26" data-name="Path 26" d="M210.274,57.543a18.8,18.8,0,1,0,18.8,18.8A18.818,18.818,0,0,0,210.274,57.543Zm0,28.854a10.057,10.057,0,1,1,10.057-10.057A10.068,10.068,0,0,1,210.274,86.4Z" transform="translate(-191.478 -57.543)" fill="#292f36"/>
          </g>
        </g>
        <g id="Group_17" data-name="Group 17" transform="translate(15.176 60.876)">
          <g id="Group_16" data-name="Group 16">
            <path id="Path_27" data-name="Path 27" d="M172.193,208.971a34.45,34.45,0,1,0,34.45,34.45A34.489,34.489,0,0,0,172.193,208.971Zm0,60.161A25.711,25.711,0,1,1,197.9,243.421,25.74,25.74,0,0,1,172.193,269.132Z" transform="translate(-137.743 -208.971)" fill="#292f36"/>
          </g>
        </g>
        <g id="Group_19" data-name="Group 19" transform="translate(35.092 80.792)">
          <g id="Group_18" data-name="Group 18">
            <path id="Path_28" data-name="Path 28" d="M220.644,277.338a14.534,14.534,0,1,0,14.534,14.534A14.55,14.55,0,0,0,220.644,277.338Zm0,20.328a5.794,5.794,0,1,1,5.795-5.794A5.8,5.8,0,0,1,220.644,297.666Z" transform="translate(-206.11 -277.338)" fill="#292f36"/>
          </g>
        </g>
      </g>
      <g id="security-camera" transform="translate(-817.482 941.772)">
        <path id="Path_18" data-name="Path 18" d="M48.6,31.5H8.162A5.168,5.168,0,0,1,3,26.337V7.162A5.168,5.168,0,0,1,8.162,2H53.112a5.166,5.166,0,0,1,5.027,6.345L53.628,27.52A5.146,5.146,0,0,1,48.6,31.5ZM8.162,6.425a.738.738,0,0,0-.737.737V26.337a.738.738,0,0,0,.737.737H48.6a.739.739,0,0,0,.72-.569L53.831,7.331a.74.74,0,0,0-.72-.906Z" transform="translate(5.85 0)" fill="#292f36"/>
        <path id="Path_19" data-name="Path 19" d="M53.15,10.675H5.212a2.212,2.212,0,0,1,0-4.425H53.15a2.212,2.212,0,0,1,0,4.425Z" transform="translate(5.85 8.287)" fill="#292f36"/>
        <path id="Path_20" data-name="Path 20" d="M28.431,24.65H21.293a2.212,2.212,0,1,1,0-4.425h7.139a.738.738,0,0,0,.737-.737V9.162a.738.738,0,0,0-.737-.737H24.567a2.212,2.212,0,0,1,0-4.425h3.864a5.168,5.168,0,0,1,5.162,5.162V19.487A5.168,5.168,0,0,1,28.431,24.65Z" transform="translate(37.206 3.9)" fill="#292f36"/>
        <path id="Path_21" data-name="Path 21" d="M2.212,33.7A2.213,2.213,0,0,1,0,31.487V18.212A2.213,2.213,0,0,1,2.212,16H12.537a2.213,2.213,0,0,1,2.212,2.212v2.95A12.553,12.553,0,0,1,2.212,33.7ZM4.425,20.425v8.543a8.128,8.128,0,0,0,5.9-7.806v-.738Z" transform="translate(0 27.3)" fill="#292f36"/>
        <path id="Path_22" data-name="Path 22" d="M21.028,32.187H5.422a2.212,2.212,0,1,1,0-4.425H21.028a3.693,3.693,0,0,0,3.687-3.688V15.962a2.212,2.212,0,1,1,4.425,0v8.112A8.121,8.121,0,0,1,21.028,32.187Z" transform="translate(6.259 22.912)" fill="#292f36"/>
        <path id="Path_23" data-name="Path 23" d="M28.387,23.287H12.162A5.168,5.168,0,0,1,7,18.125V12.962a2.212,2.212,0,0,1,4.425,0v5.162a.738.738,0,0,0,.737.738H28.387a.738.738,0,0,0,.738-.738V12.962a2.212,2.212,0,0,1,4.425,0v5.162A5.168,5.168,0,0,1,28.387,23.287Z" transform="translate(13.65 17.062)" fill="#292f36"/>
      </g>
      <g id="Union_9" data-name="Union 9" transform="translate(-915 1081.772)" fill="none">
        <path d="M0,74a102.9,102.9,0,0,1,3-25.77V29H24v19.23A102.9,102.9,0,0,1,27,74c0,22.644,1.365,24-13.5,24S0,96.644,0,74Z" stroke="none"/>
        <path d="M 13.50000095367432 93.00009918212891 C 15.68196105957031 93.00009918212891 17.92020034790039 92.97358703613281 19.50977516174316 92.78128051757813 C 20.70364761352539 92.6368408203125 21.16339874267578 92.44432067871094 21.29314613342285 92.37767791748047 C 21.38983726501465 92.20433044433594 21.69656562805176 91.49857330322266 21.87094688415527 89.30367279052734 C 22.06032180786133 86.92013549804688 22.04184150695801 83.54740142822266 22.01845359802246 79.27737426757813 C 22.00980186462402 77.69841766357422 22 75.90879058837891 22 73.99980163574219 C 22 65.06453704833984 20.99453353881836 56.36956405639648 19.16882705688477 49.5165901184082 L 19.00030708312988 48.8840446472168 L 19.00030708312988 48.22943115234375 L 19.00030708312988 33.99980545043945 L 7.999694347381592 33.99980545043945 L 7.999694347381592 48.22937774658203 L 7.999694347381592 48.88399124145508 L 7.831174373626709 49.51653671264648 C 6.005467414855957 56.3694953918457 5.000000953674316 65.06449890136719 5.000000953674316 73.99980163574219 C 5.000000953674316 75.90879058837891 4.990200996398926 77.69841766357422 4.981547832489014 79.27737426757813 C 4.958160877227783 83.54740142822266 4.939681053161621 86.92013549804688 5.129054069519043 89.30367279052734 C 5.303436756134033 91.49857330322266 5.610164642333984 92.20433044433594 5.706855773925781 92.37767791748047 C 5.836602210998535 92.44432067871094 6.2963547706604 92.6368408203125 7.490227699279785 92.78128051757813 C 9.079800605773926 92.97358703613281 11.31804084777832 93.00009918212891 13.50000095367432 93.00009918212891 M 13.50000095367432 98.00009918212891 C -1.365305662155151 98.00009918212891 9.5367431640625e-07 96.64380645751953 9.5367431640625e-07 73.99980163574219 C 9.5367431640625e-07 64.23717498779297 1.123827576637268 55.27060317993164 2.999694347381592 48.22937774658203 L 2.999694347381592 28.99980354309082 L 24.00030708312988 28.99980354309082 L 24.00030708312988 48.22943115234375 C 25.87617492675781 55.27067184448242 27 64.23717498779297 27 73.99980163574219 C 27 96.64380645751953 28.36530685424805 98.00009918212891 13.50000095367432 98.00009918212891 Z" stroke="none" fill="#292f36"/>
      </g>
      <g id="Union_10" data-name="Union 10" transform="translate(-885 1058.772)" fill="none">
        <path d="M.011,89a137.279,137.279,0,0,1,4-34.361V29H31.992V54.639a137.279,137.279,0,0,1,4,34.36c0,30.192,1.819,32-17.989,32S.011,119.192.011,89Z" stroke="none"/>
        <path d="M 18 116.0001068115234 C 21.82011604309082 116.0001068115234 24.79809951782227 115.9318008422852 26.9150505065918 115.5984878540039 C 28.27281761169434 115.3847045898438 29.18873405456543 115.0723724365234 29.56376647949219 114.6952743530273 C 29.8701171875 114.3872528076172 30.43048286437988 113.4093856811523 30.74160003662109 110.3211364746094 C 31.07381629943848 107.0232391357422 31.048583984375 102.4109725952148 31.01363372802734 96.02733612060547 C 31.00211715698242 93.92420196533203 30.98906707763672 91.54048919677734 30.98906707763672 88.99974060058594 C 30.98906707763672 82.82859039306641 30.64373397827148 76.78871917724609 29.96266746520996 71.04787445068359 C 29.31001663208008 65.54653930664063 28.36713409423828 60.45872116088867 27.16023254394531 55.92572021484375 L 26.99189949035645 55.29352188110352 L 26.99189949035645 54.63928604125977 L 26.99189949035645 33.99980545043945 L 9.008099555969238 33.99980545043945 L 9.008099555969238 54.63920593261719 L 9.008099555969238 55.29343795776367 L 8.839766502380371 55.92563629150391 C 7.632866859436035 60.45862197875977 6.689983367919922 65.54645538330078 6.037333488464355 71.04782104492188 C 5.356266498565674 76.78868865966797 5.010933399200439 82.82859039306641 5.010933399200439 88.99974060058594 C 5.010933399200439 91.54048919677734 4.997883319854736 93.92420196533203 4.986366748809814 96.02733612060547 C 4.951416492462158 102.4109725952148 4.926183223724365 107.0232391357422 5.258399963378906 110.3211364746094 C 5.569516658782959 113.4093856811523 6.129883289337158 114.3872528076172 6.436233520507813 114.6952743530273 C 6.811266899108887 115.0723724365234 7.72718334197998 115.3847045898438 9.08495044708252 115.5984878540039 C 11.20189952850342 115.9318008422852 14.17988300323486 116.0001068115234 18 116.0001068115234 M 18 121.0001068115234 C -1.808366656303406 121.0001068115234 0.01093333307653666 119.1917037963867 0.01093333307653666 88.99974060058594 C 0.01093333307653666 75.98291778564453 1.508450031280518 64.02750396728516 4.008100032806396 54.63920593261719 L 4.008100032806396 28.99980354309082 L 31.99189949035645 28.99980354309082 L 31.99189949035645 54.63928604125977 C 34.49155044555664 64.02760314941406 35.98906707763672 75.98291778564453 35.98906707763672 88.99974060058594 C 35.98906707763672 119.1917037963867 37.80836486816406 121.0001068115234 18 121.0001068115234 Z" stroke="none" fill="#292f36"/>
      </g>
    </g>
  </g>
</svg>
