<svg xmlns="http://www.w3.org/2000/svg" xmlns:xlink="http://www.w3.org/1999/xlink" width="37" height="30.17" viewBox="0 0 37 30.17">
  <defs>
    <clipPath id="clip-Comments">
      <rect width="37" height="30.17"/>
    </clipPath>
  </defs>
  <g id="Comments" clip-path="url(#clip-Comments)">
    <g id="Union_11" data-name="Union 11" transform="translate(1058.986 347)" fill="none">
      <path d="M-1057.509-318.307l1.385-7.623a11.252,11.252,0,0,1-2.862-7.339c0-7.583,8.283-13.73,18.5-13.73s18.5,6.147,18.5,13.73-8.283,13.73-18.5,13.73a24.439,24.439,0,0,1-5.649-.652l-9.77,3.294a1.229,1.229,0,0,1-.394.066A1.246,1.246,0,0,1-1057.509-318.307Z" stroke="none"/>
      <path d="M -1055.3125 -319.2078857421875 L -1046.774658203125 -322.0859985351563 L -1046.231079101563 -322.2691955566406 L -1045.673095703125 -322.1365051269531 C -1044.0048828125 -321.7398376464844 -1042.259887695313 -321.5386962890625 -1040.486450195313 -321.5386962890625 C -1038.192260742188 -321.5386962890625 -1035.970825195313 -321.8708190917969 -1033.884155273438 -322.5258483886719 C -1031.894775390625 -323.1503295898438 -1030.11572265625 -324.0386352539063 -1028.596557617188 -325.1661376953125 C -1025.623413085938 -327.3726806640625 -1023.986022949219 -330.2503662109375 -1023.986022949219 -333.2691040039063 C -1023.986022949219 -336.287841796875 -1025.623413085938 -339.16552734375 -1028.596557617188 -341.3720703125 C -1030.11572265625 -342.4995727539063 -1031.894775390625 -343.3878784179688 -1033.884155273438 -344.0123596191406 C -1035.970825195313 -344.6673889160156 -1038.192260742188 -344.99951171875 -1040.486450195313 -344.99951171875 C -1042.780395507813 -344.99951171875 -1045.001586914063 -344.6673889160156 -1047.088256835938 -344.0123596191406 C -1049.077514648438 -343.3879089355469 -1050.8564453125 -342.4995727539063 -1052.375610351563 -341.3720703125 C -1055.3486328125 -339.1654968261719 -1056.985961914063 -336.2878112792969 -1056.985961914063 -333.2691040039063 C -1056.985961914063 -331.1430358886719 -1056.161865234375 -329.0541687011719 -1054.602905273438 -327.2283020019531 L -1053.986328125 -326.5062561035156 L -1054.156127929688 -325.5720825195313 L -1055.3125 -319.2078857421875 M -1056.30029296875 -316.8314819335938 C -1057.035888671875 -316.8314819335938 -1057.652954101563 -317.51171875 -1057.509033203125 -318.3066101074219 L -1056.123901367188 -325.9296264648438 C -1057.9365234375 -328.0525207519531 -1058.985961914063 -330.5697326660156 -1058.985961914063 -333.2691040039063 C -1058.985961914063 -340.8525085449219 -1050.703247070313 -346.99951171875 -1040.486450195313 -346.99951171875 C -1030.268676757813 -346.99951171875 -1021.986022949219 -340.8525085449219 -1021.986022949219 -333.2691040039063 C -1021.986022949219 -325.6856994628906 -1030.268676757813 -319.5386962890625 -1040.486450195313 -319.5386962890625 C -1042.456909179688 -319.5386962890625 -1044.354736328125 -319.7672424316406 -1046.1357421875 -320.1907653808594 L -1055.906127929688 -316.897216796875 C -1056.038818359375 -316.8523864746094 -1056.17138671875 -316.8315124511719 -1056.30029296875 -316.8314819335938 Z" stroke="none" fill="#ffffff"/>
    </g>
  </g>
</svg>
