<?xml version="1.0" encoding="iso-8859-1"?>
<!-- Generator: Adobe Illustrator 19.0.0, SVG Export Plug-In . SVG Version: 6.00 Build 0)  -->
<svg version="1.1" id="Capa_1" xmlns="http://www.w3.org/2000/svg" xmlns:xlink="http://www.w3.org/1999/xlink" x="0px" y="0px"
	 viewBox="0 0 512 512" style="enable-background:new 0 0 512 512;" xml:space="preserve" fill="white">
<g>
	<g>
		<g>
			<path d="M256,106.667C124.406,106.667,0,163.688,0,224c0,114.844,41.885,181.333,256,181.333S512,338.844,512,224
				C512,163.688,387.594,106.667,256,106.667z M266.667,362.667h-21.333c-5.896,0-10.667-4.771-10.667-10.667
				c0-5.896,4.771-10.667,10.667-10.667h21.333c5.896,0,10.667,4.771,10.667,10.667
				C277.333,357.896,272.563,362.667,266.667,362.667z M256,298.667c-140.375,0-234.667-38.604-234.667-74.667
				c0-38.656,98.542-96,234.667-96s234.667,57.344,234.667,96C490.667,260.063,396.375,298.667,256,298.667z"/>
			<circle cx="192" cy="160" r="10.667"/>
			<circle cx="234.667" cy="160" r="10.667"/>
			<circle cx="277.333" cy="160" r="10.667"/>
			<circle cx="320" cy="160" r="10.667"/>
		</g>
	</g>
</g>
<g>
</g>
<g>
</g>
<g>
</g>
<g>
</g>
<g>
</g>
<g>
</g>
<g>
</g>
<g>
</g>
<g>
</g>
<g>
</g>
<g>
</g>
<g>
</g>
<g>
</g>
<g>
</g>
<g>
</g>
</svg>
