<svg xmlns="http://www.w3.org/2000/svg" xmlns:xlink="http://www.w3.org/1999/xlink" width="34" height="31" viewBox="0 0 34 31">
  <defs>
    <clipPath id="clip-Heart">
      <rect width="34" height="31"/>
    </clipPath>
  </defs>
  <g id="Heart" clip-path="url(#clip-Heart)">
    <g id="Union_1" data-name="Union 1" transform="translate(993.515 -495.924) rotate(-45)" fill="none">
      <path d="M-1043.667-318H-1063v-19.333a9.667,9.667,0,0,1,9.666-9.667,9.667,9.667,0,0,1,9.667,9.667,9.667,9.667,0,0,1,9.667,9.667,9.667,9.667,0,0,1-9.667,9.666Z" stroke="none"/>
      <path d="M -1043.666625976563 -320.0001220703125 C -1039.439086914063 -320.0001220703125 -1035.999633789063 -323.439208984375 -1035.999633789063 -327.6664428710938 C -1035.999633789063 -331.89404296875 -1039.439086914063 -335.3334350585938 -1043.666625976563 -335.3334350585938 L -1045.666625976563 -335.3334350585938 L -1045.666625976563 -337.3334350585938 C -1045.666625976563 -341.5610046386719 -1049.10595703125 -345.0003967285156 -1053.33349609375 -345.0003967285156 C -1057.560791015625 -345.0003967285156 -1060.999877929688 -341.5610046386719 -1060.999877929688 -337.3334350585938 L -1060.999877929688 -320.0001220703125 L -1043.666625976563 -320.0001220703125 M -1043.666625976563 -318.0001220703125 L -1062.999877929688 -318.0001220703125 L -1062.999877929688 -337.3334350585938 C -1062.999877929688 -342.6721496582031 -1058.672241210938 -347.0003967285156 -1053.33349609375 -347.0003967285156 C -1047.994140625 -347.0003967285156 -1043.666625976563 -342.6721496582031 -1043.666625976563 -337.3334350585938 C -1038.327758789063 -337.3334350585938 -1033.999633789063 -333.0057983398438 -1033.999633789063 -327.6664428710938 C -1033.999633789063 -322.3277282714844 -1038.327758789063 -318.0001220703125 -1043.666625976563 -318.0001220703125 Z" stroke="none" fill="#ffffff"/>
    </g>
  </g>
</svg>
