<svg id="Layer_1" data-name="Layer 1" xmlns="http://www.w3.org/2000/svg" viewBox="0 0 136.9 73.96"><defs><style>.cls-1{fill:#fff;}</style></defs><path class="cls-1" d="M103.5,59.89v40H94.27v-40Z" transform="translate(-72.68 -26.85)"/><path class="cls-1" d="M111.43,73.15h8.63v3.18a9.78,9.78,0,0,1,8.28-3.9,10.54,10.54,0,0,1,7.68,2.7c2.52,2.52,2.7,5.7,2.7,7.86V99.91h-8.64V86.17c0-1.74-.06-4-1.44-5.34a4.53,4.53,0,0,0-3.3-1.2,4.65,4.65,0,0,0-3.59,1.44,6.81,6.81,0,0,0-1.69,5.1V99.91h-8.63Z" transform="translate(-72.68 -26.85)"/><path class="cls-1" d="M145.44,73.15h8.64v3.18a9.77,9.77,0,0,1,8.28-3.9,10.54,10.54,0,0,1,7.68,2.7c2.52,2.52,2.7,5.7,2.7,7.86V99.91H164.1V86.17c0-1.74-.06-4-1.44-5.34a4.53,4.53,0,0,0-3.3-1.2,4.7,4.7,0,0,0-3.6,1.44,6.85,6.85,0,0,0-1.68,5.1V99.91h-8.64Z" transform="translate(-72.68 -26.85)"/><path class="cls-1" d="M205.56,96.49a18,18,0,0,1-23.4,0,14.35,14.35,0,0,1,0-19.92,18,18,0,0,1,23.4,0,14.35,14.35,0,0,1,0,19.92ZM189,81.49a7.4,7.4,0,0,0,0,10.08,6.65,6.65,0,0,0,4.92,1.92,6.56,6.56,0,0,0,4.8-1.92,7.4,7.4,0,0,0,0-10.08,7.11,7.11,0,0,0-9.72,0Z" transform="translate(-72.68 -26.85)"/><path class="cls-1" d="M124.12,42l-.28.28a4.46,4.46,0,0,1-5.9.32,30.87,30.87,0,0,0-37.78,0,4.46,4.46,0,0,1-5.91-.31L74,42a4.43,4.43,0,0,1,.44-6.64,40.1,40.1,0,0,1,49.27,0A4.43,4.43,0,0,1,124.12,42Z" transform="translate(-72.68 -26.85)"/><path class="cls-1" d="M110.67,55.41h0a4.58,4.58,0,0,1-5.47.79,12.42,12.42,0,0,0-12.3,0,4.58,4.58,0,0,1-5.47-.79h0a4.6,4.6,0,0,1,.89-7.23,21.67,21.67,0,0,1,21.45,0A4.61,4.61,0,0,1,110.67,55.41Z" transform="translate(-72.68 -26.85)"/></svg>