<svg id="Layer_1" data-name="Layer 1" xmlns="http://www.w3.org/2000/svg" viewBox="0 0 242.14 130.7"><defs><style>.cls-1{fill:#231f20;}.cls-2{font-size:60px;font-family:FuturaPT-Heavy, Futura PT;font-weight:800;}.cls-2,.cls-3{fill:#fff;}.cls-3{stroke:#231f20;stroke-miterlimit:10;}</style></defs><rect class="cls-1" width="242.14" height="130.7"/><text class="cls-2" transform="translate(64.75 100.24)">Inno</text><path class="cls-3" d="M124.12,42l-.28.28a4.46,4.46,0,0,1-5.9.32,30.87,30.87,0,0,0-37.78,0,4.46,4.46,0,0,1-5.91-.31L74,42a4.43,4.43,0,0,1,.44-6.64,40.1,40.1,0,0,1,49.27,0A4.43,4.43,0,0,1,124.12,42Z" transform="translate(-24.96 0.33)"/><path class="cls-3" d="M110.67,55.41h0a4.58,4.58,0,0,1-5.47.79,12.42,12.42,0,0,0-12.3,0,4.58,4.58,0,0,1-5.47-.79h0a4.6,4.6,0,0,1,.89-7.23,21.67,21.67,0,0,1,21.45,0A4.61,4.61,0,0,1,110.67,55.41Z" transform="translate(-24.96 0.33)"/></svg>