<svg xmlns="http://www.w3.org/2000/svg" xmlns:xlink="http://www.w3.org/1999/xlink" width="75.59" height="62.99" viewBox="0 0 75.59 62.99">
  <defs>
    <clipPath id="clip-security_camera">
      <rect width="75.59" height="62.99"/>
    </clipPath>
  </defs>
  <g id="security_camera" data-name="security camera" clip-path="url(#clip-security_camera)">
    <g id="security-camera" transform="translate(0 -2)">
      <path id="Path_18" data-name="Path 18" d="M51.685,33.5H8.512A5.518,5.518,0,0,1,3,27.983V7.512A5.518,5.518,0,0,1,8.512,2H56.5a5.515,5.515,0,0,1,5.367,6.775L57.052,29.246A5.494,5.494,0,0,1,51.685,33.5ZM8.512,6.724a.788.788,0,0,0-.787.787V27.983a.788.788,0,0,0,.787.787H51.685a.789.789,0,0,0,.768-.608L57.269,7.691a.79.79,0,0,0-.768-.967Z" transform="translate(6.449 0)" fill="#fff"/>
      <path id="Path_19" data-name="Path 19" d="M56.542,10.974H5.362a2.362,2.362,0,0,1,0-4.724H56.542a2.362,2.362,0,1,1,0,4.724Z" transform="translate(6.449 9.135)" fill="#fff"/>
      <path id="Path_20" data-name="Path 20" d="M29.064,26.047H21.442a2.362,2.362,0,1,1,0-4.724h7.622a.788.788,0,0,0,.787-.787V9.512a.788.788,0,0,0-.787-.787H24.938a2.362,2.362,0,1,1,0-4.724h4.126a5.518,5.518,0,0,1,5.512,5.512V20.535A5.518,5.518,0,0,1,29.064,26.047Z" transform="translate(41.013 4.299)" fill="#fff"/>
      <path id="Path_21" data-name="Path 21" d="M2.362,34.9A2.363,2.363,0,0,1,0,32.535V18.362A2.363,2.363,0,0,1,2.362,16H13.385a2.363,2.363,0,0,1,2.362,2.362v3.15A13.4,13.4,0,0,1,2.362,34.9ZM4.724,20.724v9.121a8.677,8.677,0,0,0,6.3-8.334v-.787Z" transform="translate(0 30.093)" fill="#fff"/>
      <path id="Path_22" data-name="Path 22" d="M22.233,33.434H5.572a2.362,2.362,0,0,1,0-4.724H22.233a3.942,3.942,0,0,0,3.937-3.937V16.112a2.362,2.362,0,1,1,4.724,0v8.661A8.67,8.67,0,0,1,22.233,33.434Z" transform="translate(6.9 25.257)" fill="#fff"/>
      <path id="Path_23" data-name="Path 23" d="M29.834,24.135H12.512A5.518,5.518,0,0,1,7,18.624V13.112a2.362,2.362,0,0,1,4.724,0v5.512a.788.788,0,0,0,.787.787H29.834a.788.788,0,0,0,.787-.787V13.112a2.362,2.362,0,0,1,4.724,0v5.512A5.518,5.518,0,0,1,29.834,24.135Z" transform="translate(15.047 18.808)" fill="#fff"/>
    </g>
  </g>
</svg>
