<svg id="_x31__x2C_5" enable-background="new 0 0 24 24" height="512" viewBox="0 0 24 24" width="512" xmlns="http://www.w3.org/2000/svg" fill="ffffff"><path d="m18.458 12h-13.708c-.965 0-1.75-.785-1.75-1.75v-6.5c0-.965.785-1.75 1.75-1.75h15.237c.538 0 1.038.242 1.372.664.334.421.455.963.332 1.487l-1.529 6.5c-.187.794-.888 1.349-1.704 1.349zm-13.708-8.5c-.138 0-.25.112-.25.25v6.5c0 .138.112.25.25.25h13.708c.117 0 .217-.08.244-.193l1.529-6.5c.024-.102-.02-.177-.048-.212s-.091-.095-.196-.095z"/><path d="m20 7.75h-16.25c-.414 0-.75-.336-.75-.75s.336-.75.75-.75h16.25c.414 0 .75.336.75.75s-.336.75-.75.75z"/><path d="m22.25 11h-2.42c-.414 0-.75-.336-.75-.75s.336-.75.75-.75h2.42c.138 0 .25-.112.25-.25v-3.5c0-.138-.112-.25-.25-.25h-1.31c-.414 0-.75-.336-.75-.75s.336-.75.75-.75h1.31c.965 0 1.75.785 1.75 1.75v3.5c0 .965-.785 1.75-1.75 1.75z"/><path d="m.75 22c-.414 0-.75-.336-.75-.75v-4.5c0-.414.336-.75.75-.75h3.5c.414 0 .75.336.75.75v1c0 2.343-1.907 4.25-4.25 4.25zm.75-4.5v2.896c1.153-.327 2-1.39 2-2.646v-.25z"/><path d="m9.25 20h-5.29c-.414 0-.75-.336-.75-.75s.336-.75.75-.75h5.29c.689 0 1.25-.561 1.25-1.25v-2.75c0-.414.336-.75.75-.75s.75.336.75.75v2.75c0 1.517-1.234 2.75-2.75 2.75z"/><path d="m14.25 15h-5.5c-.965 0-1.75-.785-1.75-1.75v-1.75c0-.414.336-.75.75-.75s.75.336.75.75v1.75c0 .138.112.25.25.25h5.5c.138 0 .25-.112.25-.25v-1.75c0-.414.336-.75.75-.75s.75.336.75.75v1.75c0 .965-.785 1.75-1.75 1.75z"/></svg>