<svg xmlns="http://www.w3.org/2000/svg" xmlns:xlink="http://www.w3.org/1999/xlink" width="47.96" height="72.07" viewBox="0 0 47.96 72.07">
  <defs>
    <clipPath id="clip-speaker">
      <rect width="47.96" height="72.07"/>
    </clipPath>
  </defs>
  <g id="speaker" clip-path="url(#clip-speaker)">
    <g id="speaker-2" data-name="speaker">
      <g id="Group_13" data-name="Group 13" transform="translate(0)">
        <g id="Group_12" data-name="Group 12">
          <path id="Path_25" data-name="Path 25" d="M127.272,0H91.982a6.342,6.342,0,0,0-6.334,6.334v59.4a6.342,6.342,0,0,0,6.334,6.334h35.29a6.342,6.342,0,0,0,6.334-6.334V6.334A6.341,6.341,0,0,0,127.272,0Zm0,67.848H91.982a2.114,2.114,0,0,1-2.111-2.111V6.334a2.114,2.114,0,0,1,2.111-2.111h35.29a2.114,2.114,0,0,1,2.111,2.111v59.4h0A2.114,2.114,0,0,1,127.272,67.848Z" transform="translate(-85.648)" fill="#fff"/>
        </g>
      </g>
      <g id="Group_15" data-name="Group 15" transform="translate(14.897 8.1)">
        <g id="Group_14" data-name="Group 14">
          <path id="Path_26" data-name="Path 26" d="M200.56,57.543a9.082,9.082,0,1,0,9.082,9.083A9.093,9.093,0,0,0,200.56,57.543Zm0,13.942a4.86,4.86,0,1,1,4.86-4.86A4.865,4.865,0,0,1,200.56,71.485Z" transform="translate(-191.478 -57.543)" fill="#fff"/>
        </g>
      </g>
      <g id="Group_17" data-name="Group 17" transform="translate(7.333 29.415)">
        <g id="Group_16" data-name="Group 16">
          <path id="Path_27" data-name="Path 27" d="M154.389,208.971a16.646,16.646,0,1,0,16.646,16.646A16.665,16.665,0,0,0,154.389,208.971Zm0,29.07a12.423,12.423,0,1,1,12.423-12.423A12.437,12.437,0,0,1,154.389,238.041Z" transform="translate(-137.743 -208.971)" fill="#fff"/>
        </g>
      </g>
      <g id="Group_19" data-name="Group 19" transform="translate(16.957 39.039)">
        <g id="Group_18" data-name="Group 18">
          <path id="Path_28" data-name="Path 28" d="M213.133,277.338a7.023,7.023,0,1,0,7.023,7.023A7.031,7.031,0,0,0,213.133,277.338Zm0,9.823a2.8,2.8,0,1,1,2.8-2.8A2.8,2.8,0,0,1,213.133,287.161Z" transform="translate(-206.11 -277.338)" fill="#fff"/>
        </g>
      </g>
    </g>
  </g>
</svg>
