<svg id="Layer_1" data-name="Layer 1" xmlns="http://www.w3.org/2000/svg" viewBox="0 0 43.71 35.96"><defs><style>.cls-1{fill:#231f20;}</style></defs><path class="cls-1" d="M472.08,70l-.24.24a3.7,3.7,0,0,1-4.89.26,25.59,25.59,0,0,0-31.32,0,3.71,3.71,0,0,1-4.89-.26l-.23-.24a3.67,3.67,0,0,1,.36-5.5,33.25,33.25,0,0,1,40.84,0A3.67,3.67,0,0,1,472.08,70Z" transform="translate(-429.44 -57.45)"/><path class="cls-1" d="M460.92,81.12h0a3.78,3.78,0,0,1-4.53.65,10.38,10.38,0,0,0-5.1-1.35,10.21,10.21,0,0,0-5.09,1.35,3.79,3.79,0,0,1-4.54-.65h0a3.82,3.82,0,0,1,.74-6,18,18,0,0,1,17.78,0A3.81,3.81,0,0,1,460.92,81.12Z" transform="translate(-429.44 -57.45)"/><path class="cls-1" d="M454,90.75a2.67,2.67,0,0,1-4.54,1.88,2.67,2.67,0,0,1,0-3.77A2.67,2.67,0,0,1,454,90.75Z" transform="translate(-429.44 -57.45)"/></svg>